HIERARCHY
ROOT Hips
{
  OFFSET 51.1203 85.6893 3.95866
  CHANNELS 6 Xposition Yposition Zposition Zrotation Xrotation Yrotation
  JOINT spine
  {
    OFFSET 0 6.3926 0.367606
    CHANNELS 3 Zrotation Xrotation Yrotation
    JOINT spine1
    {
      OFFSET 0 9.17611 0
      CHANNELS 3 Zrotation Xrotation Yrotation
      JOINT spine2
      {
        OFFSET 0 8.79238 0
        CHANNELS 3 Zrotation Xrotation Yrotation
        JOINT Neck
        {
          OFFSET 0 22.5737 1.07624
          CHANNELS 3 Zrotation Xrotation Yrotation
          JOINT Head
          {
            OFFSET 0 6.82011 0
            CHANNELS 3 Zrotation Xrotation Yrotation
            End Site
            {
              OFFSET 0 16.5085 -5.44427
            }
          }
        }
        JOINT RightShoulder
        {
          OFFSET -3.70221 9.49509 -0.515508
          CHANNELS 3 Zrotation Xrotation Yrotation
          JOINT RightArm
          {
            OFFSET 0 12.4537 0
            CHANNELS 3 Zrotation Xrotation Yrotation
            JOINT RightArmRoll
            {
              OFFSET 0 6.28686 0
              CHANNELS 3 Zrotation Xrotation Yrotation
              JOINT RightForeArm
              {
                OFFSET 0 18.3114 0
                CHANNELS 3 Zrotation Xrotation Yrotation
                JOINT RightForeArmRoll
                {
                  OFFSET 0 7.05482 0
                  CHANNELS 3 Zrotation Xrotation Yrotation
                  JOINT RightHand
                  {
                    OFFSET 0 14.1575 0
                    CHANNELS 3 Zrotation Xrotation Yrotation
                    End Site
                    {
                      OFFSET 0 0 0
                    }
                  }
                }
              }
            }
          }
        }
        JOINT LeftShoulder
        {
          OFFSET 3.70221 9.49509 -0.515508
          CHANNELS 3 Zrotation Xrotation Yrotation
          JOINT LeftArm
          {
            OFFSET 0 12.4537 0
            CHANNELS 3 Zrotation Xrotation Yrotation
            JOINT LeftArmRoll
            {
              OFFSET 0 6.28686 0
              CHANNELS 3 Zrotation Xrotation Yrotation
              JOINT LeftForeArm
              {
                OFFSET 0 18.3114 0
                CHANNELS 3 Zrotation Xrotation Yrotation
                JOINT LeftForeArmRoll
                {
                  OFFSET 0 7.05483 0
                  CHANNELS 3 Zrotation Xrotation Yrotation
                  JOINT LeftHand
                  {
                    OFFSET 0 14.1575 0
                    CHANNELS 3 Zrotation Xrotation Yrotation
                    End Site
                    {
                      OFFSET 0 0 0
                    }
                  }
                }
              }
            }
          }
        }
      }
    }
  }
  JOINT RightUpLeg
  {
    OFFSET -5.66615 -1.03903 -0.87161
    CHANNELS 3 Zrotation Xrotation Yrotation
    JOINT RightUpLegRoll
    {
      OFFSET 0 16.6005 0
      CHANNELS 3 Zrotation Xrotation Yrotation
      JOINT RightLeg
      {
        OFFSET 0 -20.5572 0
        CHANNELS 3 Zrotation Xrotation Yrotation
        JOINT RightLegRoll
        {
          OFFSET 0 20.6244 0
          CHANNELS 3 Zrotation Xrotation Yrotation
          JOINT RightFoot
          {
            OFFSET 0 17.1664 0
            CHANNELS 3 Zrotation Xrotation Yrotation
            JOINT RightToeBase
            {
              OFFSET 0 14.3502 0
              CHANNELS 3 Zrotation Xrotation Yrotation
              End Site
              {
                OFFSET 0.00608252 6.94971 -0.80106
              }
            }
          }
        }
      }
    }
  }
  JOINT LeftUpLeg
  {
    OFFSET 5.66615 -1.03903 -0.87161
    CHANNELS 3 Zrotation Xrotation Yrotation
    JOINT LeftUpLegRoll
    {
      OFFSET 0 16.6006 0
      CHANNELS 3 Zrotation Xrotation Yrotation
      JOINT LeftLeg
      {
        OFFSET 0 20.5571 0
        CHANNELS 3 Zrotation Xrotation Yrotation
        JOINT LeftLegRoll
        {
          OFFSET 0 20.8151 0
          CHANNELS 3 Zrotation Xrotation Yrotation
          JOINT LeftFoot
          {
            OFFSET 0 16.9757 0
            CHANNELS 3 Zrotation Xrotation Yrotation
            JOINT LeftToeBase
            {
              OFFSET 0 14.3502 0
              CHANNELS 3 Zrotation Xrotation Yrotation
              End Site
              {
                OFFSET -0.0272592 6.94971 -0.801061
              }
            }
          }
        }
      }
    }
  }
}
MOTION
Frames: 12
Frame Time: 0.00208333
50.4392 85.752 4.11827 -1.59806 -4.90194 0.511606 -0.211137 -0.994777 -0.116107 -0.426929 2.022 -0.208153 -0.42485 3.66706 -0.200923 6.15662 8.88834 -0.79722 -2.55943 7.70999 0.934411 65.142 -2.53123 -2.12265 106.149 17.7182 3.69998 8.4657e-007 1.40084e-009 -2.835e-006 14.3571 5.58882 -1.06945 5.39556e-006 -1.6589e-006 -3.00174 8.02892 -4.95147 0.697709 -53.5243 0.252041 -0.881173 -113.246 15.343 -0.288495 -9.91838e-007 -8.58886e-007 3.39469e-006 -9.53757 4.35661 0.940427 -3.43884e-006 3.95533e-007 3.01383 -8.02898 -4.95146 -0.697689 176.539 -4.67999 0.135553 180 7.01513e-015 178.783 177.98 4.92388 179.696 -2.45697e-006 1.23139e-006 0.0415093 -18.6759 67.8516 19.4158 8.13649 25.2327 -3.48774 -172.589 -2.97431 -1.40564 4.54188e-006 -4.6773e-006 -1.12498 -1.5484 -7.13391 0.434232 -3.03726e-006 -2.56543e-006 -0.0112651 17.7529 68.39 -19.8437 -8.13654 25.2334 3.4868 
50.4284 85.7506 4.11587 -1.60271 -4.90163 0.508077 -0.210458 -0.995689 -0.116028 -0.425248 2.01957 -0.208002 -0.423168 3.66463 -0.200816 6.15902 8.91852 -0.798964 -2.5594 7.73372 0.934961 65.1534 -2.52981 -2.12289 106.106 17.7579 3.82821 8.4657e-007 1.40084e-009 -2.835e-006 14.2827 5.47585 -1.05773 5.39556e-006 -1.6589e-006 -3.00174 8.02892 -4.95147 0.697709 -53.5251 0.257057 -0.884494 -113.225 15.3342 -0.361815 -9.91838e-007 -8.58886e-007 3.39469e-006 -9.48468 4.35421 0.939953 -3.43884e-006 3.95533e-007 3.01383 -8.02898 -4.95146 -0.697689 176.546 -4.67811 0.131885 180 7.01513e-015 178.783 177.981 4.92506 179.696 -2.45697e-006 1.23139e-006 0.0415093 -18.6758 67.8515 19.4156 8.13649 25.2327 -3.48774 -172.575 -2.97198 -1.42713 4.54188e-006 -4.6773e-006 -1.12566 -1.56822 -7.1387 0.432765 -3.03726e-006 -2.56543e-006 -0.0120158 17.7616 68.3903 -19.844 -8.13654 25.2334 3.4868 
50.43 85.7593 4.11846 -1.6078 -4.90074 0.504488 -0.209724 -0.996729 -0.115934 -0.423416 2.01686 -0.207845 -0.421334 3.66192 -0.200705 6.16127 8.94897 -0.800742 -2.55908 7.75658 0.935412 65.165 -2.5282 -2.12305 106.063 17.7968 3.95493 8.4657e-007 1.40083e-009 -2.835e-006 14.2094 5.36391 -1.04603 5.39556e-006 -1.6589e-006 -3.00174 8.02892 -4.95147 0.697709 -53.5264 0.262345 -0.88792 -113.204 15.3249 -0.434354 -9.91838e-007 -8.58886e-007 3.39469e-006 -9.43261 4.35278 0.939565 -3.43884e-006 3.95533e-007 3.01383 -8.02898 -4.95146 -0.697689 176.553 -4.67556 0.127641 180 7.01513e-015 178.783 177.983 4.92623 179.696 -2.45697e-006 1.23139e-006 0.0415093 -18.6757 67.8514 19.4155 8.13649 25.2327 -3.48774 -172.558 -2.96891 -1.45134 4.54188e-006 -4.6773e-006 -1.12643 -1.59072 -7.14359 0.430977 -3.03726e-006 -2.56543e-006 -0.0128283 17.7713 68.3902 -19.8441 -8.13654 25.2334 3.4868 
50.4248 85.7705 4.09156 -1.61319 -4.89944 0.500857 -0.20895 -0.997858 -0.11583 -0.421478 2.01396 -0.207684 -0.419394 3.65902 -0.200593 6.16342 8.97963 -0.802544 -2.55855 7.77883 0.935794 65.1767 -2.52644 -2.12314 106.021 17.835 4.0806 8.4657e-007 1.40082e-009 -2.835e-006 14.1368 5.2527 -1.03436 5.39556e-006 -1.6589e-006 -3.00174 8.02892 -4.95147 0.697709 -53.5282 0.267824 -0.89142 -113.183 15.3154 -0.506345 -9.91838e-007 -8.58886e-007 3.39469e-006 -9.3811 4.35203 0.939238 -3.43884e-006 3.95533e-007 3.01383 -8.02898 -4.95146 -0.697689 176.561 -4.67254 0.122992 180 7.01513e-015 178.783 177.985 4.92742 179.696 -2.45697e-006 1.23139e-006 0.0415093 -18.6756 67.8513 19.4154 8.13649 25.2327 -3.48774 -172.54 -2.96534 -1.47745 4.54188e-006 -4.6773e-006 -1.12725 -1.61509 -7.14857 0.428964 -3.03726e-006 -2.56543e-006 -0.0136841 17.7816 68.3898 -19.844 -8.13654 25.2334 3.4868 
50.4207 85.7676 4.09703 -1.61877 -4.89791 0.497201 -0.208153 -0.999038 -0.115719 -0.419479 2.01095 -0.20752 -0.417393 3.656 -0.20048 6.16551 9.0104 -0.80436 -2.55791 7.80072 0.936136 65.1885 -2.5246 -2.1232 105.979 17.8728 4.2057 8.4657e-007 1.40083e-009 -2.835e-006 14.0648 5.14191 -1.0227 5.39556e-006 -1.6589e-006 -3.00174 8.02892 -4.95147 0.697709 -53.5301 0.273412 -0.894961 -113.161 15.3056 -0.57802 -9.91839e-007 -8.58886e-007 3.39469e-006 -9.32993 4.35166 0.938946 -3.43884e-006 3.95533e-007 3.01383 -8.02898 -4.95146 -0.697689 176.569 -4.66925 0.118113 180 7.01513e-015 178.783 177.986 4.92861 179.696 -2.45697e-006 1.23139e-006 0.0415093 -18.6756 67.8513 19.4153 8.13649 25.2327 -3.48774 -172.521 -2.96147 -1.50465 4.54188e-006 -4.6773e-006 -1.1281 -1.64052 -7.15358 0.426822 -3.03726e-006 -2.56543e-006 -0.0145646 17.7924 68.3893 -19.8438 -8.13654 25.2334 3.4868 
50.4399 85.7655 4.12776 -1.62438 -4.89632 0.49354 -0.207351 -1.00023 -0.115607 -0.417465 2.0079 -0.207356 -0.415377 3.65296 -0.200366 6.16759 9.04119 -0.80618 -2.55723 7.82253 0.936468 65.2003 -2.52275 -2.12325 105.937 17.9104 4.33069 8.4657e-007 1.40084e-009 -2.835e-006 13.9929 5.03121 -1.01106 5.39556e-006 -1.6589e-006 -3.00174 8.02892 -4.95147 0.697709 -53.5322 0.279027 -0.898514 -113.14 15.2958 -0.64961 -9.91838e-007 -8.58886e-007 3.39469e-006 -9.27883 4.35139 0.938662 -3.43884e-006 3.95533e-007 3.01383 -8.02898 -4.95146 -0.697689 176.578 -4.66589 0.113177 180 7.01513e-015 178.783 177.988 4.9298 179.695 -2.45697e-006 1.23139e-006 0.0415093 -18.6755 67.8512 19.4152 8.13649 25.2327 -3.48774 -172.502 -2.95753 -1.53213 4.54188e-006 -4.6773e-006 -1.12896 -1.66623 -7.15861 0.424648 -3.03726e-006 -2.56543e-006 -0.0154513 17.8032 68.3888 -19.8435 -8.13654 25.2334 3.4868 
50.4384 85.7575 4.11715 -1.62991 -4.89484 0.48989 -0.20656 -1.0014 -0.115498 -0.415482 2.00492 -0.207193 -0.413392 3.64998 -0.200253 6.1697 9.07193 -0.807994 -2.55662 7.84451 0.936821 65.2121 -2.52093 -2.12331 105.894 17.9481 4.45606 8.4657e-007 1.40083e-009 -2.835e-006 13.9208 4.92031 -0.999413 5.39556e-006 -1.6589e-006 -3.00174 8.02892 -4.95147 0.697709 -53.5341 0.284587 -0.902045 -113.119 15.286 -0.721348 -9.91838e-007 -8.58886e-007 3.39469e-006 -9.22757 4.35093 0.938361 -3.43884e-006 3.95533e-007 3.01383 -8.02898 -4.95146 -0.697689 176.586 -4.66267 0.108356 180 7.01513e-015 178.783 177.99 4.93098 179.695 -2.45697e-006 1.23139e-006 0.0415093 -18.6755 67.8511 19.4151 8.13649 25.2327 -3.48774 -172.483 -2.95374 -1.55906 4.54188e-006 -4.6773e-006 -1.12981 -1.6914 -7.16361 0.422539 -3.03726e-006 -2.56543e-006 -0.0163257 17.8139 68.3883 -19.8433 -8.13654 25.2334 3.4868 
50.4131 85.7549 4.11082 -1.63522 -4.89366 0.486271 -0.205798 -1.0025 -0.115396 -0.413574 2.00207 -0.207033 -0.411482 3.64713 -0.200141 6.17189 9.10253 -0.809791 -2.55615 7.86693 0.937223 65.2238 -2.51921 -2.12342 105.851 17.9861 4.58227 8.4657e-007 1.40084e-009 -2.835e-006 13.8483 4.80889 -0.987769 5.39556e-006 -1.6589e-006 -3.00174 8.02892 -4.95147 0.697709 -53.5358 0.290012 -0.905524 -113.098 15.2765 -0.793468 -9.91838e-007 -8.58886e-007 3.39469e-006 -9.1759 4.34999 0.938017 -3.43884e-006 3.95533e-007 3.01383 -8.02898 -4.95146 -0.697689 176.594 -4.65978 0.103823 180 7.01513e-015 178.783 177.991 4.93217 179.695 -2.45697e-006 1.23139e-006 0.0415093 -18.6754 67.851 19.4149 8.13649 25.2327 -3.48774 -172.466 -2.95031 -1.58463 4.54188e-006 -4.6773e-006 -1.13061 -1.71523 -7.16856 0.420589 -3.03726e-006 -2.56543e-006 -0.0171691 17.824 68.388 -19.8433 -8.13654 25.2334 3.4868 
50.4254 85.7482 4.11298 -1.64018 -4.89294 0.4827 -0.20508 -1.0035 -0.115307 -0.411787 1.99945 -0.206878 -0.409694 3.6445 -0.200032 6.1742 9.1329 -0.811563 -2.55592 7.89005 0.937705 65.2353 -2.51766 -2.12361 105.807 18.0246 4.7098 8.4657e-007 1.40083e-009 -2.835e-006 13.7749 4.69664 -0.976118 5.39556e-006 -1.6589e-006 -3.00174 8.02892 -4.95147 0.697709 -53.5369 0.295218 -0.908918 -113.077 15.2672 -0.866201 -9.91838e-007 -8.58886e-007 3.39469e-006 -9.12358 4.34827 0.937603 -3.43884e-006 3.95533e-007 3.01383 -8.02898 -4.95146 -0.697689 176.601 -4.65744 0.0997518 180 7.01513e-015 178.783 177.993 4.93334 179.695 -2.45697e-006 1.23139e-006 0.0415093 -18.6753 67.8509 19.4148 8.13649 25.2327 -3.48774 -172.449 -2.94746 -1.60802 4.54188e-006 -4.6773e-006 -1.13135 -1.73693 -7.17343 0.418897 -3.03726e-006 -2.56543e-006 -0.0179631 17.8334 68.388 -19.8435 -8.13654 25.2334 3.4868 
50.4345 85.7516 4.12443 -1.64465 -4.89287 0.479195 -0.204424 -1.00436 -0.115234 -0.410167 1.99713 -0.206729 -0.408072 3.64218 -0.199925 6.17667 9.16296 -0.813297 -2.55601 7.91413 0.938296 65.2466 -2.51633 -2.12389 105.762 18.064 4.83912 8.4657e-007 1.40083e-009 -2.835e-006 13.7004 4.58324 -0.964455 5.39556e-006 -1.6589e-006 -3.00174 8.02892 -4.95147 0.697709 -53.5374 0.300125 -0.912197 -113.056 15.2584 -0.93978 -9.91838e-007 -8.58886e-007 3.39469e-006 -9.07037 4.34548 0.937094 -3.43884e-006 3.95533e-007 3.01383 -8.02898 -4.95146 -0.697689 176.607 -4.65583 0.0963149 180 7.01513e-015 178.783 177.994 4.93452 179.695 -2.45697e-006 1.23139e-006 0.0415093 -18.6752 67.8508 19.4147 8.13649 25.2327 -3.48774 -172.435 -2.94542 -1.62842 4.54188e-006 -4.6773e-006 -1.132 -1.75569 -7.17818 0.417559 -3.03726e-006 -2.56543e-006 -0.018689 17.8416 68.3885 -19.8439 -8.13654 25.2334 3.4868 
50.4282 85.7517 4.123 -1.64851 -4.89361 0.475774 -0.203848 -1.00505 -0.115183 -0.408758 1.99519 -0.206589 -0.406662 3.64025 -0.199823 6.17936 9.19263 -0.814986 -2.55651 7.93943 0.939026 65.2576 -2.51528 -2.1243 105.715 18.1043 4.97073 8.4657e-007 1.40083e-009 -2.835e-006 13.6244 4.46839 -0.952775 5.39556e-006 -1.6589e-006 -3.00174 8.02892 -4.95147 0.697709 -53.5371 0.30465 -0.915329 -113.035 15.2501 -1.01444 -9.91838e-007 -8.58886e-007 3.39469e-006 -9.01601 4.34134 0.936463 -3.43884e-006 3.95533e-007 3.01383 -8.02898 -4.95146 -0.697689 176.612 -4.65516 0.0936853 180 7.01513e-015 178.783 177.994 4.93568 179.695 -2.45697e-006 1.23139e-006 0.0415093 -18.6751 67.8506 19.4146 8.13649 25.2327 -3.48774 -172.424 -2.9444 -1.64501 4.54188e-006 -4.6773e-006 -1.13254 -1.77072 -7.18277 0.41667 -3.03726e-006 -2.56543e-006 -0.0193284 17.8485 68.3894 -19.8448 -8.13654 25.2334 3.4868 
50.4379 85.7497 4.12051 -1.65163 -4.89535 0.472456 -0.203367 -1.00551 -0.115158 -0.407607 1.99373 -0.206458 -0.40551 3.63878 -0.199725 6.1823 9.22181 -0.816617 -2.55751 7.96623 0.939926 65.2682 -2.51457 -2.12487 105.667 18.1459 5.10508 8.4657e-007 1.40083e-009 -2.835e-006 13.5466 4.35177 -0.941073 5.39556e-006 -1.6589e-006 -3.00174 8.02892 -4.95147 0.697709 -53.5358 0.308712 -0.918282 -113.014 15.2426 -1.09041 -9.91838e-007 -8.58886e-007 3.39469e-006 -8.96027 4.33556 0.935684 -3.43884e-006 3.95533e-007 3.01383 -8.02898 -4.95146 -0.697689 176.616 -4.65565 0.0920362 180 7.01513e-015 178.783 177.994 4.93682 179.695 -2.45697e-006 1.23139e-006 0.0415093 -18.6749 67.8504 19.4145 8.13649 25.2327 -3.48774 -172.415 -2.94461 -1.65697 4.54188e-006 -4.6773e-006 -1.13294 -1.7812 -7.18719 0.416327 -3.03726e-006 -2.56543e-006 -0.0198627 17.8537 68.3909 -19.8461 -8.13654 25.2334 3.4868 
